<svg width="60" height="60" viewBox="0 0 60 60" fill="none" xmlns="http://www.w3.org/2000/svg">
<path d="M49.4007 27.3791H9.88547C8.59774 27.3791 7.55383 28.4244 7.55383 29.7138V29.9595C7.55383 31.2489 8.59774 32.2942 9.88547 32.2942H49.4007C50.6884 32.2942 51.7323 31.2489 51.7323 29.9595V29.7138C51.7323 28.4244 50.6884 27.3791 49.4007 27.3791Z" fill="black" fill-opacity="0.47"/>
<path d="M49.4007 39.6667H9.88547C8.59774 39.6667 7.55383 40.7119 7.55383 42.0013V42.2471C7.55383 43.5365 8.59774 44.5817 9.88547 44.5817H49.4007C50.6884 44.5817 51.7323 43.5365 51.7323 42.2471V42.0013C51.7323 40.7119 50.6884 39.6667 49.4007 39.6667Z" fill="black" fill-opacity="0.47"/>
<path d="M49.4007 15.0915H9.88547C8.59774 15.0915 7.55383 16.1368 7.55383 17.4262V17.6719C7.55383 18.9613 8.59774 20.0066 9.88547 20.0066H49.4007C50.6884 20.0066 51.7323 18.9613 51.7323 17.6719V17.4262C51.7323 16.1368 50.6884 15.0915 49.4007 15.0915Z" fill="black" fill-opacity="0.47"/>
</svg>
