<svg width="62" height="61" viewBox="0 0 62 61" fill="none" xmlns="http://www.w3.org/2000/svg">
<path d="M31.1595 27.8388C33.1591 27.8388 35.1138 27.2451 36.7764 26.1327C38.439 25.0204 39.7349 23.4394 40.5001 21.5896C41.2653 19.7398 41.4655 17.7044 41.0754 15.7407C40.6853 13.777 39.7224 11.9732 38.3085 10.5574C36.8946 9.14167 35.0931 8.17753 33.1319 7.78693C31.1707 7.39632 29.1379 7.59679 27.2905 8.36299C25.4431 9.1292 23.8641 10.4267 22.7532 12.0915C21.6423 13.7562 21.0493 15.7134 21.0493 17.7156C21.0493 20.4005 22.1145 22.9753 24.0105 24.8738C25.9065 26.7723 28.4781 27.8388 31.1595 27.8388Z" fill="black" fill-opacity="0.42"/>
<path d="M46.3248 53.1468C46.9951 53.1468 47.638 52.8802 48.112 52.4056C48.5861 51.931 48.8523 51.2872 48.8523 50.616C48.8523 45.9176 46.9883 41.4115 43.6702 38.0892C40.3522 34.7669 35.8519 32.9004 31.1595 32.9004C26.4671 32.9004 21.9668 34.7669 18.6488 38.0892C15.3307 41.4115 13.4667 45.9176 13.4667 50.616C13.4667 51.2872 13.733 51.931 14.207 52.4056C14.681 52.8802 15.3239 53.1468 15.9942 53.1468H46.3248Z" fill="black" fill-opacity="0.42"/>
</svg>
